<svg width="964" height="327" viewBox="0 0 964 327" fill="none" xmlns="http://www.w3.org/2000/svg">
<rect x="501" y="3" width="463" height="324" rx="10" fill="#181818"/>
<path d="M580.384 269.112V246.072C580.384 241.805 582.432 239.672 586.528 239.672H608.544C612.811 239.672 614.944 241.805 614.944 246.072V269.112C614.944 273.037 612.811 275 608.544 275H586.528C584.651 275 583.115 274.488 581.92 273.464C580.896 272.269 580.384 270.819 580.384 269.112ZM638.93 186.168V174.392C638.93 149.987 650.706 137.784 674.258 137.784C714.706 137.784 738.941 140.088 746.962 144.696V167.224H685.266C683.047 167.224 681.17 167.395 679.634 167.736C678.269 168.077 677.245 168.675 676.562 169.528C675.879 170.381 675.367 171.32 675.026 172.344C674.855 173.368 674.77 174.819 674.77 176.696V182.84C674.77 186.765 675.623 189.24 677.33 190.264C679.037 191.117 681.682 191.544 685.266 191.544H717.522C723.837 191.544 729.298 192.483 733.906 194.36C738.685 196.067 742.439 198.541 745.17 201.784C748.071 205.027 750.205 208.781 751.57 213.048C752.935 217.144 753.618 221.667 753.618 226.616V240.696C753.618 261.176 744.999 272.867 727.762 275.768C725.373 276.109 722.898 276.28 720.338 276.28C677.33 276.28 652.071 273.805 644.562 268.856V246.584H708.818C714.791 246.584 717.778 243.683 717.778 237.88V231.48C717.778 229.432 717.522 227.811 717.01 226.616C716.669 225.421 715.815 224.483 714.45 223.8C713.085 223.117 711.207 222.776 708.818 222.776H677.074C664.615 222.776 655.143 219.875 648.658 214.072C642.173 208.269 638.93 198.968 638.93 186.168ZM772.77 275V74.552H808.354V153.656C810.914 151.779 812.535 150.584 813.218 150.072C814.071 149.56 815.693 148.451 818.082 146.744C820.642 145.037 822.519 143.928 823.714 143.416C824.909 142.904 826.786 142.136 829.346 141.112C831.906 139.917 834.125 139.149 836.002 138.808C838.05 138.296 840.439 137.869 843.17 137.528C845.901 137.016 848.717 136.76 851.618 136.76C878.754 136.76 892.322 152.632 892.322 184.376V275H856.482V183.864C856.482 177.379 855.117 172.685 852.386 169.784C849.826 166.883 846.157 165.432 841.378 165.432C836.599 165.432 832.333 165.944 828.578 166.968C824.994 167.821 821.666 169.101 818.594 170.808C815.693 172.344 812.365 174.477 808.61 177.208V275H772.77Z" fill="white"/>
<path d="M10.24 245.744V230.128C10.24 219.717 13.2267 211.44 19.2 205.296C25.344 199.152 33.7067 196.08 44.288 196.08C61.184 196.08 75.1787 196.08 86.272 196.08C90.88 196.08 94.464 196.08 97.024 196.08C99.7547 196.08 101.12 196.08 101.12 196.08C101.12 191.131 101.12 186.949 101.12 183.536C101.12 182.853 101.12 182.256 101.12 181.744C101.12 181.232 101.12 180.805 101.12 180.464C101.12 179.952 101.12 179.611 101.12 179.44C101.12 179.099 101.12 178.928 101.12 178.928C101.12 164.933 94.1227 157.936 80.128 157.936C64.768 157.936 42.9227 158.96 14.592 161.008V147.184C31.8293 142.405 53.9307 139.845 80.896 139.504C81.0667 139.504 81.3227 139.504 81.664 139.504C92.928 139.504 102.144 142.832 109.312 149.488C116.48 155.973 120.064 165.787 120.064 178.928V278H105.984L101.12 261.616L97.28 263.408C94.8907 264.603 91.648 266.139 87.552 268.016C83.456 269.723 79.0187 271.515 74.24 273.392C69.4613 275.099 64.3413 276.549 58.88 277.744C53.4187 278.939 48.5547 279.536 44.288 279.536C34.56 279.536 26.4533 276.549 19.968 270.576C13.4827 264.603 10.24 256.325 10.24 245.744ZM29.184 244.464C29.184 255.216 34.2187 260.592 44.288 260.592C50.432 260.592 58.1973 259.483 67.584 257.264C77.1413 255.045 85.1627 252.912 91.648 250.864L101.12 247.536V210.928L44.288 215.024C39.168 215.536 35.328 217.328 32.768 220.4C30.3787 223.472 29.184 227.227 29.184 231.664V244.464ZM148.11 278V142.064H161.422L167.054 157.936C167.566 157.765 169.443 156.741 172.686 154.864C175.929 152.816 177.891 151.621 178.574 151.28C179.427 150.939 181.305 150 184.206 148.464C187.107 146.757 189.155 145.733 190.35 145.392C191.545 145.051 193.507 144.368 196.238 143.344C198.969 142.32 201.187 141.637 202.894 141.296C204.771 140.955 206.99 140.613 209.55 140.272C212.11 139.931 214.67 139.76 217.23 139.76C230.201 139.76 240.441 144.027 247.95 152.56C255.459 161.093 259.214 171.333 259.214 183.28V278H240.27V183.28C240.27 175.259 238.137 169.2 233.87 165.104C229.603 160.837 224.057 158.704 217.23 158.704C210.745 158.704 204.601 159.387 198.798 160.752C192.995 162.117 188.302 163.568 184.718 165.104C181.305 166.469 175.417 169.2 167.054 173.296V278H148.11ZM282.24 186.352V174.576C282.24 163.483 284.971 155.12 290.432 149.488C295.893 143.685 304.939 140.784 317.568 140.784C333.781 140.784 356.053 142.149 384.384 144.88V159.472H317.568C313.643 159.472 310.485 159.813 308.096 160.496C305.707 161.179 304 162.373 302.976 164.08C302.123 165.616 301.611 167.067 301.44 168.432C301.269 169.797 301.184 171.845 301.184 174.576V186.352C301.184 189.765 301.525 192.496 302.208 194.544C303.061 196.592 304.341 198.043 306.048 198.896C307.755 199.749 309.376 200.347 310.912 200.688C312.448 200.859 314.667 200.944 317.568 200.944H358.016C368.768 200.944 376.96 204.016 382.592 210.16C388.395 216.133 391.296 224.069 391.296 233.968V246.512C391.296 259.141 388.224 267.76 382.08 272.368C375.936 276.976 367.915 279.28 358.016 279.28C342.144 279.28 318.763 277.659 287.872 274.416V260.336H358.016C358.357 260.336 358.699 260.336 359.04 260.336C360.235 260.336 361.429 260.251 362.624 260.08C363.819 259.739 365.184 259.141 366.72 258.288C368.427 257.435 369.792 255.984 370.816 253.936C371.84 251.888 372.352 249.413 372.352 246.512V233.968C372.352 229.189 371.243 225.691 369.024 223.472C366.976 221.083 363.307 219.888 358.016 219.888H317.568C305.109 219.888 296.064 217.499 290.432 212.72C284.971 207.941 282.24 199.152 282.24 186.352ZM414.3 120.048V106.224C414.3 101.957 416.348 99.824 420.444 99.824H433.244C437.169 99.824 439.132 101.957 439.132 106.224V120.048C439.132 123.973 437.169 125.936 433.244 125.936H420.444C416.348 125.936 414.3 123.973 414.3 120.048ZM416.86 278V142.064H435.804V278H416.86Z" fill="white"/>
</svg>
